# Blender 5.0.1
# www.blender.org
mtllib star.mtl
o Cylinder
v 0.000000 -0.358321 0.000000
v 0.000000 0.358321 0.000000
v 0.000000 0.000000 -1.000000
v 0.323282 0.119440 -0.396283
v 0.323282 -0.119440 -0.396283
v 0.951057 0.000000 -0.309017
v 0.523081 0.119440 0.151367
v 0.523081 -0.119440 0.151367
v 0.587785 0.000000 0.809017
v 0.000000 0.119440 0.489833
v 0.000000 -0.119440 0.489833
v -0.587785 0.000000 0.809017
v -0.523081 0.119440 0.151367
v -0.523081 -0.119440 0.151367
v -0.951057 0.000000 -0.309017
v -0.323282 0.119440 -0.396283
v -0.323282 -0.119440 -0.396283
vn 0.2715 0.9060 -0.3246
vn 0.2226 0.9045 -0.3636
vn 0.3837 0.9157 0.1191
vn 0.3809 0.9156 0.1288
vn -0.0553 0.8974 0.4377
vn 0.0553 0.8974 0.4377
vn -0.3809 0.9156 0.1288
vn -0.3837 0.9157 0.1191
vn -0.2226 0.9045 -0.3636
vn -0.2715 0.9060 -0.3246
vn -0.2715 -0.9060 -0.3246
vn -0.8816 -0.0000 -0.4721
vn -0.2226 -0.9045 -0.3636
vn -0.1377 -0.0000 -0.9905
vn -0.3837 -0.9157 0.1191
vn -0.7324 -0.0000 0.6809
vn -0.3809 -0.9156 0.1288
vn -0.9952 -0.0000 -0.0979
vn 0.0553 -0.8974 0.4377
vn 0.4772 -0.0000 0.8788
vn -0.0553 -0.8974 0.4377
vn -0.4772 -0.0000 0.8788
vn 0.3809 -0.9156 0.1288
vn 0.9952 -0.0000 -0.0979
vn 0.3837 -0.9157 0.1191
vn 0.7324 -0.0000 0.6809
vn 0.2226 -0.9045 -0.3636
vn 0.1377 -0.0000 -0.9905
vn 0.2715 -0.9060 -0.3246
vn 0.8816 -0.0000 -0.4721
vt 1.000000 0.833333
vt 0.900000 1.000000
vt 0.900000 0.833333
vt 0.800000 1.000000
vt 0.800000 0.833333
vt 0.700000 1.000000
vt 0.700000 0.833333
vt 0.600000 1.000000
vt 0.600000 0.833333
vt 0.500000 1.000000
vt 0.500000 0.833333
vt 0.400000 1.000000
vt 0.400000 0.833333
vt 0.300000 1.000000
vt 0.300000 0.833333
vt 0.200000 1.000000
vt 0.200000 0.833333
vt 0.100000 1.000000
vt 0.100000 0.833333
vt -0.000000 1.000000
vt -0.000000 0.833333
vt 0.100000 0.500000
vt 0.100000 0.666667
vt -0.000000 0.666667
vt 0.200000 0.500000
vt 0.200000 0.666667
vt 0.300000 0.500000
vt 0.300000 0.666667
vt 0.400000 0.500000
vt 0.400000 0.666667
vt 0.500000 0.500000
vt 0.500000 0.666667
vt 0.600000 0.500000
vt 0.600000 0.666667
vt 0.700000 0.500000
vt 0.700000 0.666667
vt 0.800000 0.500000
vt 0.800000 0.666667
vt 0.900000 0.500000
vt 0.900000 0.666667
vt 1.000000 0.500000
vt 1.000000 0.666667
s 0
f 3/1/1 2/2/1 4/3/1
f 4/3/2 2/4/2 6/5/2
f 6/5/3 2/6/3 7/7/3
f 7/7/4 2/8/4 9/9/4
f 9/9/5 2/10/5 10/11/5
f 10/11/6 2/12/6 12/13/6
f 12/13/7 2/14/7 13/15/7
f 13/15/8 2/16/8 15/17/8
f 15/17/9 2/18/9 16/19/9
f 16/19/10 2/20/10 3/21/10
f 1/22/11 17/23/11 3/24/11
f 17/23/12 16/19/12 3/24/12
f 1/25/13 15/26/13 17/23/13
f 15/17/14 16/19/14 17/23/14
f 1/27/15 14/28/15 15/26/15
f 14/28/16 13/15/16 15/26/16
f 1/29/17 12/30/17 14/28/17
f 12/13/18 13/15/18 14/28/18
f 1/31/19 11/32/19 12/30/19
f 11/32/20 10/11/20 12/30/20
f 1/33/21 9/34/21 11/32/21
f 9/9/22 10/11/22 11/32/22
f 1/35/23 8/36/23 9/34/23
f 8/36/24 7/7/24 9/34/24
f 1/37/25 6/38/25 8/36/25
f 6/5/26 7/7/26 8/36/26
f 1/39/27 5/40/27 6/38/27
f 5/40/28 4/3/28 6/38/28
f 1/41/29 3/42/29 5/40/29
f 3/1/30 4/3/30 5/40/30
